# xmcd
#
# Track frame offsets:
#	180
#	16733
#	32977
#	52301
#	70519
#	92196
#	112866
#	125990
#	145117
#	158020
#	179627
#
# Disc length: 2670 seconds
#
# Revision: 0
# Processed by: cddbd v1.4PL0 Copyright (c) Steve Scherf et al.
# Submitted via: EasyCDDAExtractor 4.6.0.1
#
DISCID=980a6c0b
DTITLE=gil chovet
DYEAR=1995
DGENRE=
TTITLE0=Cimtiere de voitures
TTITLE1=Le pikpoket
TTITLE2=Promenade des anglaises
TTITLE3=Véro
TTITLE4=Modèle
TTITLE5=Berceuse du robot
TTITLE6=La bande a Sydney
TTITLE7=Morte saison
TTITLE8=Etrange étrangers
TTITLE9=Moi d'avril , moi de mai
TTITLE10=A la flamme d'une bougie
EXTD=
EXTT0=
EXTT1=
EXTT2=
EXTT3=
EXTT4=
EXTT5=
EXTT6=
EXTT7=
EXTT8=
EXTT9=
EXTT10=
PLAYORDER=
